
      <svg data-logo="logo" xmlns="http://www.w3.org/2000/svg" viewBox="0 0 68 41">
        <g id="logogram" transform="translate(0, 0) rotate(0) "><path d="M45.5457 3.82291C46.3434 2.93648 47.2299 2.20518 48.1385 1.629C49.734 0.631771 51.4182 0.0999146 53.1468 0.0999146V14.5708C51.8836 10.183 49.1578 6.4157 45.5457 3.82291ZM67.0637 40.0999H15.806C7.38499 40.0999 0.581665 33.2744 0.581665 24.8755C0.581665 16.8312 6.83097 10.2273 14.7423 9.67332V0.0999146C16.5152 0.0999146 18.2659 0.60961 19.9058 1.629C20.8144 2.18302 21.7008 2.91432 22.4986 3.75642C25.7562 1.47388 29.7008 0.144236 33.9778 0.144236C33.9778 9.38523 30.6537 20.1332 19.8393 20.1553H33.867C33.4681 18.3603 31.8282 17.0307 29.8781 17.0085H38.0332C36.083 17.0085 34.4432 18.3603 34.0443 20.1775H47.1191C49.734 20.1775 52.3268 20.6872 54.7645 21.7066C57.18 22.7038 59.3961 24.1886 61.2354 26.0279C63.0969 27.8894 64.5595 30.0833 65.5567 32.4988C66.554 34.8922 67.0637 37.485 67.0637 40.0999ZM23.3628 9.93925C23.6952 10.8035 24.5817 11.7786 25.8227 12.4877C27.0637 13.1969 28.349 13.485 29.2576 13.352C28.9252 12.4877 28.0387 11.5127 26.7977 10.8035C25.5567 10.0944 24.2714 9.80629 23.3628 9.93925ZM42.0221 12.4877C40.7811 13.1969 39.4958 13.485 38.5872 13.352C38.9196 12.4877 39.806 11.5127 41.047 10.8035C42.288 10.0944 43.5734 9.80629 44.4819 9.93925C44.1717 10.8035 43.2631 11.7786 42.0221 12.4877Z" fill="white"/></g>
        <g id="logotype" transform="translate(68, 20.5)"></g>
        
      </svg>
    