
      <svg data-logo="logo" xmlns="http://www.w3.org/2000/svg" viewBox="0 0 47 40">
        <g id="logogram" transform="translate(0, 0) rotate(0) "><path d="M1.21579 17.4405C2.45484 12.4605 5.32444 8.03799 9.36765 4.87751C13.4109 1.71696 18.3953 0 23.5272 0C28.6591 0 33.6435 1.71696 37.6868 4.87751C41.7301 8.03799 44.5996 12.4605 45.8387 17.4405H43.8233C40.4236 17.3905 37.0936 18.4066 34.3009 20.346C34.1396 20.4627 33.9714 20.5693 33.797 20.6651H33.5619C33.3876 20.5693 33.2193 20.4627 33.0581 20.346C30.2406 18.4514 26.9224 17.4395 23.5272 17.4395C20.1321 17.4395 16.8138 18.4514 13.9964 20.346C13.8351 20.4627 13.6669 20.5693 13.4925 20.6651H13.2574C13.0831 20.5693 12.9148 20.4627 12.7536 20.346C9.96083 18.4066 6.63083 17.3905 3.23113 17.4405H1.21579ZM40.1957 27.9707C41.2303 27.165 42.5125 26.7435 43.8233 26.7782H46.5272V21.3872H43.8233C41.5144 21.3593 39.2584 22.078 37.391 23.4362C36.3402 24.2109 35.069 24.6289 33.7634 24.6289C32.4578 24.6289 31.1867 24.2109 30.1358 23.4362C28.2211 22.1033 25.9441 21.3887 23.6112 21.3887C21.2783 21.3887 19.0013 22.1033 17.0866 23.4362C16.0357 24.2109 14.7645 24.6289 13.4589 24.6289C12.1533 24.6289 10.8822 24.2109 9.83135 23.4362C7.94096 22.0605 5.65255 21.341 3.3151 21.3872H0.527222V26.7782H3.23113C4.54195 26.7435 5.82419 27.165 6.85873 27.9707C8.76994 29.3045 11.0444 30.0196 13.375 30.0196C15.7055 30.0196 17.98 29.3045 19.8912 27.9707C20.9271 27.1675 22.2084 26.7463 23.5188 26.7782C24.8301 26.7406 26.1132 27.1625 27.1464 27.9707C29.0612 29.3036 31.3382 30.0181 33.6711 30.0181C36.004 30.0181 38.281 29.3036 40.1957 27.9707ZM40.1957 37.6107C41.2303 36.805 42.5125 36.3835 43.8233 36.4183H46.5272V31.0272H43.8233C41.5144 30.9994 39.2584 31.718 37.391 33.0762C36.3402 33.8509 35.069 34.2689 33.7634 34.2689C32.4578 34.2689 31.1867 33.8509 30.1358 33.0762C28.2211 31.7434 25.9441 31.0289 23.6112 31.0289C21.2783 31.0289 19.0013 31.7434 17.0866 33.0762C16.0357 33.8509 14.7645 34.2689 13.4589 34.2689C12.1533 34.2689 10.8822 33.8509 9.83135 33.0762C7.94096 31.7007 5.65255 30.9811 3.3151 31.0272H0.527222V36.4183H3.23113C4.54195 36.3835 5.82419 36.805 6.85873 37.6107C8.76994 38.9445 11.0444 39.6596 13.375 39.6596C15.7055 39.6596 17.98 38.9445 19.8912 37.6107C20.9271 36.8076 22.2084 36.3864 23.5188 36.4183C24.8301 36.3806 26.1132 36.8025 27.1464 37.6107C29.0612 38.9436 31.3382 39.6581 33.6711 39.6581C36.004 39.6581 38.281 38.9436 40.1957 37.6107Z" fill="white"/></g>
        <g id="logotype" transform="translate(47, 20)"></g>
        
      </svg>
    