
      <svg data-logo="logo" xmlns="http://www.w3.org/2000/svg" viewBox="0 0 156 42">
        <g id="logogram" transform="translate(0, 1) rotate(0) "><path d="M0 33L4.60606 25H12.2448C17.2569 25 21.4947 28.7103 22.1571 33.6784L23 40H13L11.5585 36.6365C10.613 34.4304 8.44379 33 6.04362 33H0Z" fill="#ffffff"/><path d="M46 33L41.3939 25H33.7552C28.7431 25 24.5053 28.7103 23.8429 33.6784L23 40H33L34.4415 36.6365C35.387 34.4304 37.5562 33 39.9564 33H46Z" fill="#ffffff"/><path d="M4.60606 25L18.9999 0H23L22.6032 9.52405C22.2608 17.7406 15.7455 24.3596 7.53537 24.8316L4.60606 25Z" fill="#ffffff"/><path d="M41.3939 25L27.0001 0H23L23.3968 9.52405C23.7392 17.7406 30.2545 24.3596 38.4646 24.8316L41.3939 25Z" fill="#ffffff"/></g>
        <g id="logotype" transform="translate(52, 8)"><path fill="#ffffff" d="M11.67 25L6.49 25L14.12 0.50L21.02 0.50L28.44 25L23.29 25L17.34 3.54L17.80 3.54L11.67 25ZM23.12 18.28L11.29 18.28L11.29 14.22L23.12 14.22L23.12 18.28ZM35.75 25L31.03 25L31.03 5.40L35.75 5.40L35.75 25ZM35.75 15.23L35.75 15.23L35.61 9.74Q35.89 7.46 36.98 6.38Q38.06 5.29 40.23 5.29L40.23 5.29L41.98 5.29L41.98 9.88L39.84 9.88Q37.61 9.88 36.68 11.07Q35.75 12.26 35.75 15.23ZM49.51 25L44.78 25L44.78 5.40L49.51 5.40L49.51 25ZM49.51 15.23L49.51 15.23L49.37 9.74Q49.65 7.46 50.73 6.38Q51.81 5.29 53.98 5.29L53.98 5.29L55.73 5.29L55.73 9.88L53.60 9.88Q51.36 9.88 50.43 11.07Q49.51 12.26 49.51 15.23ZM66.59 25.52L66.59 25.52Q63.72 25.52 61.67 24.20Q59.62 22.86 58.55 20.54Q57.48 18.21 57.48 15.16L57.48 15.16Q57.48 12.08 58.57 9.77Q59.66 7.46 61.69 6.17Q63.72 4.87 66.59 4.87L66.59 4.87Q69.49 4.87 71.50 6.17Q73.52 7.46 74.58 9.77Q75.65 12.08 75.65 15.16L75.65 15.16Q75.65 18.21 74.58 20.55Q73.52 22.90 71.50 24.21Q69.49 25.52 66.59 25.52ZM66.59 21.50L66.59 21.50Q68.72 21.50 69.79 19.91Q70.86 18.31 70.86 15.16L70.86 15.16Q70.86 12.01 69.77 10.46Q68.69 8.90 66.59 8.90L66.59 8.90Q64.45 8.90 63.37 10.47Q62.28 12.05 62.28 15.16L62.28 15.16Q62.28 18.35 63.44 19.93Q64.59 21.50 66.59 21.50ZM87.27 25L81.53 25L77.64 5.40L82.27 5.40L85.06 21.75L84.02 21.75L88.01 5.40L92.70 5.40L96.58 21.75L95.56 21.75L98.33 5.40L102.95 5.40L99.03 25L93.26 25L89.44 8.79L91.26 8.79L87.27 25Z"/></g>
        
      </svg>
    